<?xml version="1.0" standalone="no"?>
<!DOCTYPE svg PUBLIC "-//W3C//DTD SVG 20010904//EN"
 "http://www.w3.org/TR/2001/REC-SVG-20010904/DTD/svg10.dtd">
<svg version="1.0" xmlns="http://www.w3.org/2000/svg"
 width="500.000000pt" height="500.000000pt" viewBox="0 0 500.000000 500.000000"
 preserveAspectRatio="xMidYMid meet">

<g transform="translate(0.000000,500.000000) scale(0.100000,-0.100000)"
fill="#000000" stroke="none">
<path d="M2515 3619 c-217 -10 -364 -58 -587 -194 -73 -45 -214 -178 -278
-264 -131 -173 -214 -408 -227 -642 -18 -312 106 -639 335 -883 57 -60 227
-183 311 -226 196 -98 434 -138 658 -110 287 36 557 185 748 413 103 123 179
270 226 432 28 97 32 129 36 275 6 195 -7 283 -67 452 -45 126 -70 172 -146
275 -125 168 -289 299 -478 382 -172 76 -315 100 -531 90z m203 -199 c203 -26
409 -137 574 -309 88 -92 106 -117 154 -217 31 -64 66 -156 80 -211 23 -89 25
-112 21 -243 -3 -98 -11 -168 -23 -215 l-19 -70 -170 -3 -170 -2 29 19 c108
72 155 234 105 365 -45 123 -151 196 -283 196 -85 0 -146 -23 -206 -77 -72
-65 -103 -130 -104 -218 -1 -98 23 -162 88 -230 l52 -55 -278 0 c-153 0 -278
2 -278 4 0 2 16 14 35 26 39 24 81 89 107 165 9 27 22 51 30 53 10 4 11 2 1
-9 -7 -7 -13 -23 -13 -35 0 -18 7 -23 46 -29 25 -3 48 -13 51 -21 6 -17 83
-20 83 -2 0 6 -18 28 -40 48 -36 33 -40 42 -34 66 9 35 80 130 132 176 21 18
71 70 112 116 l74 82 51 0 c63 0 97 21 93 58 -3 26 -1 27 50 30 l52 3 0 -30
c0 -21 5 -31 15 -31 19 0 21 70 3 88 -7 7 -43 12 -91 12 -43 0 -109 7 -148 16
l-69 16 0 65 c0 64 0 65 24 59 14 -3 28 -2 31 4 3 6 16 8 28 5 19 -5 26 2 49
49 37 75 20 115 -50 116 -27 0 -36 -6 -53 -35 -24 -39 -24 -40 -59 -20 -16 9
-54 14 -104 15 -67 0 -87 -4 -143 -31 -92 -44 -160 -112 -169 -168 l-7 -44
-73 7 c-41 3 -74 2 -74 -2 0 -17 60 -52 89 -52 27 0 30 -4 39 -47 9 -42 8 -50
-9 -66 -26 -24 -24 -39 5 -31 22 5 26 2 34 -33 48 -203 63 -274 60 -285 -3 -7
-8 5 -12 26 -18 94 -92 187 -180 227 -49 22 -179 26 -229 7 -22 -9 -84 -12
-205 -10 l-174 3 7 27 c3 15 15 46 25 70 l19 42 110 0 111 0 0 25 c0 25 0 25
-95 25 -53 0 -95 4 -95 9 0 28 79 138 157 217 231 237 507 334 831 294z m39
-438 c6 -41 17 -80 24 -88 8 -10 33 -14 83 -14 71 0 129 -22 109 -40 -4 -4
-59 -11 -120 -15 -113 -7 -113 -7 -113 15 0 35 -42 82 -114 129 -64 42 -80 60
-53 62 6 0 39 6 72 14 96 22 98 21 112 -63z m-313 -109 l38 -48 -33 -3 c-17
-2 -35 0 -39 5 -13 13 -23 93 -12 93 5 0 26 -21 46 -47z m65 -97 c-2 -2 -21
-8 -41 -14 -29 -8 -38 -7 -42 4 -4 11 5 14 41 14 25 0 44 -2 42 -4z m271 -10
c0 -14 -160 -189 -167 -182 -2 2 5 23 18 47 17 34 20 54 16 96 l-6 53 70 0
c51 0 69 -3 69 -14z m-229 -107 c-25 -35 -32 -58 -37 -116 -4 -40 -10 -73 -15
-73 -4 0 -13 26 -19 57 -7 32 -14 64 -17 73 -3 11 -1 11 10 -2 24 -30 29 -21
21 39 -6 54 -6 58 22 80 28 22 29 22 47 4 18 -18 18 -19 -12 -62z m-631 -18
c0 -3 -13 -21 -28 -38 l-28 -33 -122 0 c-132 0 -131 -1 -116 58 6 22 8 23 150
21 79 -1 144 -5 144 -8z m317 -22 c23 -11 44 -23 47 -28 7 -11 -97 -104 -233
-210 -101 -79 -102 -79 -121 -11 -19 66 -5 126 39 164 13 12 19 26 16 37 -4
12 5 23 31 38 73 43 140 46 221 10z m763 -59 c0 -49 -2 -90 -4 -90 -2 0 -27
30 -55 67 -42 54 -49 69 -39 79 11 11 64 30 91 33 4 1 7 -39 7 -89z m113 63
c32 -16 34 -10 -40 -103 l-43 -52 0 91 0 91 28 -6 c15 -4 40 -13 55 -21z
m-203 -98 c25 -30 48 -55 53 -55 4 0 7 -3 7 -7 0 -7 -171 -5 -178 2 -11 10 50
115 67 115 3 0 26 -25 51 -55z m292 24 c10 -13 21 -39 24 -56 l7 -33 -88 0
-87 0 53 59 c30 33 58 59 63 57 6 -1 18 -13 28 -27z m-861 -35 c28 -75 29 -74
-55 -74 -42 0 -76 4 -76 9 0 14 103 100 113 94 4 -3 12 -16 18 -29z m-504 -54
c-4 -30 0 -71 8 -105 8 -31 15 -58 15 -60 0 -3 -51 -5 -114 -5 -97 0 -115 2
-120 17 -4 9 -10 59 -13 110 l-6 93 118 0 118 0 -6 -50z m1119 -39 c-8 -12
-131 -81 -144 -81 -12 0 -26 66 -17 80 3 6 42 10 86 10 46 0 78 -4 75 -9z
m276 -31 c-2 -19 -7 -39 -12 -43 -9 -10 -150 61 -150 75 0 5 37 8 83 6 l82 -3
-3 -35z m-1011 -59 l73 -68 -43 -28 c-59 -39 -130 -45 -199 -15 -83 36 -83 39
3 114 42 36 79 66 84 66 5 0 41 -31 82 -69z m133 47 c-13 -45 -23 -66 -31 -71
-4 -3 -34 17 -66 44 l-59 49 82 0 c80 0 81 0 74 -22z m809 -44 c49 -25 49 -25
31 -47 -11 -12 -20 -24 -22 -26 -3 -5 -85 86 -112 123 -14 20 -13 20 20 -2 19
-13 57 -34 83 -48z m-243 -4 c-29 -33 -56 -62 -60 -65 -4 -3 -15 6 -24 19 -15
24 -14 25 52 65 37 22 71 40 75 41 5 0 -14 -27 -43 -60z m77 -136 c-6 -6 -72
15 -92 30 -18 13 -16 17 36 85 l54 71 3 -91 c1 -50 1 -93 -1 -95z m106 93 c45
-55 43 -61 -27 -82 l-46 -14 0 97 c0 93 1 96 17 72 9 -14 34 -47 56 -73z
m-1162 -97 l44 -40 -161 0 -162 0 -6 24 c-3 13 -9 31 -12 40 -5 14 9 16 124
16 l129 0 44 -40z m139 -210 c0 -17 -7 -20 -40 -20 -38 0 -40 -2 -40 -29 0
-26 4 -30 33 -33 27 -2 32 -7 32 -28 0 -21 -5 -26 -32 -28 -30 -3 -32 -5 -35
-50 -3 -39 -6 -47 -23 -47 -19 0 -20 8 -23 128 l-3 127 66 0 c58 0 65 -2 65
-20z m192 8 c9 -7 19 -34 22 -59 5 -37 3 -50 -13 -71 -20 -25 -20 -25 -1 -64
25 -47 25 -54 2 -54 -21 0 -42 21 -65 65 l-16 30 -1 -48 c0 -44 -2 -48 -22
-45 -22 3 -23 7 -26 117 -1 63 0 121 2 128 7 17 97 17 118 1z m226 -4 c20 -14
22 -23 22 -108 0 -107 -9 -125 -65 -133 -31 -4 -46 0 -67 17 -27 20 -28 25
-28 109 0 109 12 131 73 131 24 0 53 -7 65 -16z m232 -4 c17 -17 20 -33 20
-107 0 -49 -4 -93 -8 -99 -24 -37 -101 -45 -132 -14 -17 17 -20 33 -20 108 0
111 12 132 76 132 31 0 50 -6 64 -20z m162 -47 l25 -68 22 68 c20 58 26 67 47
67 l24 0 0 -131 c0 -130 0 -130 -22 -127 -19 2 -24 10 -26 48 l-3 44 -21 -44
-20 -45 -24 50 -24 50 0 -47 c0 -50 -8 -62 -34 -52 -13 5 -16 26 -16 130 0
124 0 124 24 124 20 0 27 -10 48 -67z m328 47 c0 -17 -7 -20 -40 -20 -38 0
-40 -2 -40 -30 0 -28 3 -30 35 -30 32 0 35 -2 35 -30 0 -28 -3 -30 -36 -30
-33 0 -35 -2 -32 -27 3 -24 8 -28 41 -31 29 -3 37 -7 37 -23 0 -18 -6 -20 -62
-17 l-63 3 -3 128 -3 127 66 0 c58 0 65 -2 65 -20z"/>
<path d="M2020 2875 c0 -24 3 -25 55 -25 52 0 55 1 55 25 0 24 -3 25 -55 25
-52 0 -55 -1 -55 -25z"/>
<path d="M2200 1920 c0 -33 3 -40 20 -40 17 0 20 7 20 40 0 33 -3 40 -20 40
-17 0 -20 -7 -20 -40z"/>
<path d="M2414 1947 c-3 -8 -4 -47 -2 -88 3 -63 6 -74 22 -77 10 -2 22 2 27
10 10 15 12 128 3 152 -7 19 -43 21 -50 3z"/>
<path d="M2647 1953 c-4 -3 -7 -42 -7 -85 0 -83 13 -105 45 -78 15 13 22 121
9 154 -6 16 -35 22 -47 9z"/>
</g>
</svg>
